<?xml version="1.0" encoding="UTF-8"?>
<!DOCTYPE svg PUBLIC "-//W3C//DTD SVG 1.1//EN" "http://www.w3.org/Graphics/SVG/1.1/DTD/svg11.dtd">
<svg xmlns="http://www.w3.org/2000/svg" version="1.1" width="512px" height="512px" style="shape-rendering:geometricPrecision; text-rendering:geometricPrecision; image-rendering:optimizeQuality; fill-rule:evenodd; clip-rule:evenodd" xmlns:xlink="http://www.w3.org/1999/xlink">
<g><path style="opacity:0.982" fill="#000000" d="M 461.5,36.5 C 472.536,34.6656 478.869,39.1656 480.5,50C 480.048,53.4094 478.881,56.576 477,59.5C 395,191.5 313,323.5 231,455.5C 216.279,473.808 197.779,478.974 175.5,471C 172.167,469 168.833,467 165.5,465C 123,413.167 80.5,361.333 38,309.5C 25.2295,285.021 29.0629,263.521 49.5,245C 63.5391,236.135 78.5391,234.135 94.5,239C 99.4924,241.161 104.159,243.828 108.5,247C 136.5,272.667 164.5,298.333 192.5,324C 196.871,327.184 201.205,327.184 205.5,324C 289.372,229.797 372.872,135.297 456,40.5C 458.015,39.3034 459.849,37.9701 461.5,36.5 Z"/></g>
</svg>
