<?xml version="1.0" encoding="UTF-8"?>
<!DOCTYPE svg PUBLIC "-//W3C//DTD SVG 1.1//EN" "http://www.w3.org/Graphics/SVG/1.1/DTD/svg11.dtd">
<svg xmlns="http://www.w3.org/2000/svg" version="1.1" width="360px" height="437px" style="shape-rendering:geometricPrecision; text-rendering:geometricPrecision; image-rendering:optimizeQuality; fill-rule:evenodd; clip-rule:evenodd" xmlns:xlink="http://www.w3.org/1999/xlink">
<g><path style="opacity:1" fill="#f6f6f6" d="M -0.5,-0.5 C 119.5,-0.5 239.5,-0.5 359.5,-0.5C 359.5,59.5 359.5,119.5 359.5,179.5C 354.5,179.5 349.5,179.5 344.5,179.5C 344.5,174.5 344.5,169.5 344.5,164.5C 339.5,164.5 334.5,164.5 329.5,164.5C 329.5,159.5 329.5,154.5 329.5,149.5C 324.5,149.5 319.5,149.5 314.5,149.5C 314.5,144.5 314.5,139.5 314.5,134.5C 309.5,134.5 304.5,134.5 299.5,134.5C 299.5,129.5 299.5,124.5 299.5,119.5C 294.5,119.5 289.5,119.5 284.5,119.5C 284.5,114.5 284.5,109.5 284.5,104.5C 279.5,104.5 274.5,104.5 269.5,104.5C 269.5,99.5 269.5,94.5 269.5,89.5C 264.5,89.5 259.5,89.5 254.5,89.5C 254.5,84.5 254.5,79.5 254.5,74.5C 249.5,74.5 244.5,74.5 239.5,74.5C 239.5,69.5 239.5,64.5 239.5,59.5C 234.5,59.5 229.5,59.5 224.5,59.5C 224.5,54.5 224.5,49.5 224.5,44.5C 219.5,44.5 214.5,44.5 209.5,44.5C 209.5,49.5 209.5,54.5 209.5,59.5C 204.5,59.5 199.5,59.5 194.5,59.5C 194.5,64.8333 194.5,70.1667 194.5,75.5C 193.99,81.072 194.823,86.4053 197,91.5C 197.995,92.0659 198.828,92.7326 199.5,93.5C 199.672,94.4916 199.338,95.1583 198.5,95.5C 196.395,96.9875 194.728,98.9875 193.5,101.5C 181.926,107.241 174.093,116.241 170,128.5C 166.506,136.307 164.34,144.474 163.5,153C 163.623,160.264 165.29,167.098 168.5,173.5C 166.873,177.792 167.539,181.792 170.5,185.5C 157.842,179.997 149.842,183.83 146.5,197C 147.174,200.18 148.508,203.014 150.5,205.5C 144.794,205.829 139.128,205.495 133.5,204.5C 132.691,202.929 132.357,201.262 132.5,199.5C 141.997,197.672 147.33,192.005 148.5,182.5C 149.167,172.5 149.833,162.5 150.5,152.5C 151.479,149.375 151.813,146.042 151.5,142.5C 121.995,142.169 92.6619,142.502 63.5,143.5C 64.7975,157.284 65.7975,170.951 66.5,184.5C 67.5612,187.622 68.8946,190.622 70.5,193.5C 67.0381,194.482 63.3714,194.815 59.5,194.5C 59.5,199.5 59.5,204.5 59.5,209.5C 54.5,209.5 49.5,209.5 44.5,209.5C 44.5,214.5 44.5,219.5 44.5,224.5C 34.5,224.5 24.5,224.5 14.5,224.5C 14.5,229.5 14.5,234.5 14.5,239.5C 9.5,239.5 4.5,239.5 -0.5,239.5C -0.5,159.5 -0.5,79.5 -0.5,-0.5 Z"/></g>
<g><path style="opacity:1" fill="#da5137" d="M 214.5,101.5 C 209.725,98.6097 204.725,95.9431 199.5,93.5C 198.828,92.7326 197.995,92.0659 197,91.5C 194.823,86.4053 193.99,81.072 194.5,75.5C 202.801,61.3466 214.468,57.5132 229.5,64C 234.993,67.8218 237.66,72.9884 237.5,79.5C 230.821,78.4015 224.487,79.5681 218.5,83C 217.978,83.5613 217.645,84.228 217.5,85C 223.022,90.1865 228.855,95.0198 235,99.5C 236.591,106.077 234.091,108.244 227.5,106C 223.332,103.911 218.998,102.411 214.5,101.5 Z"/></g>
<g><path style="opacity:1" fill="#f4f3f3" d="M 359.5,179.5 C 359.5,194.5 359.5,209.5 359.5,224.5C 354.5,224.5 349.5,224.5 344.5,224.5C 344.5,219.5 344.5,214.5 344.5,209.5C 339.5,209.5 334.5,209.5 329.5,209.5C 329.5,214.5 329.5,219.5 329.5,224.5C 322.613,222.918 315.613,222.252 308.5,222.5C 306.821,222.715 305.821,222.048 305.5,220.5C 306.492,217.221 306.659,213.888 306,210.5C 301.152,207.074 296.485,203.408 292,199.5C 287.82,191.63 284.82,183.297 283,174.5C 281.334,171.669 279.168,169.336 276.5,167.5C 276.5,165.5 276.5,163.5 276.5,161.5C 277.167,161.5 277.833,161.5 278.5,161.5C 279.274,162.147 280.274,162.48 281.5,162.5C 283.03,162.36 284.03,161.693 284.5,160.5C 289.833,155.833 289.833,151.167 284.5,146.5C 283.082,144.692 281.082,144.025 278.5,144.5C 278.389,143.883 278.056,143.383 277.5,143C 273.375,141.893 269.709,142.56 266.5,145C 263.833,145.667 261.167,146.333 258.5,147C 256.94,149.659 254.607,150.826 251.5,150.5C 250.878,148.665 249.544,147.498 247.5,147C 243.446,146.306 239.446,146.473 235.5,147.5C 232.933,146.525 230.267,145.858 227.5,145.5C 227.158,144.662 226.492,144.328 225.5,144.5C 222.223,143.462 219.057,142.129 216,140.5C 212.735,130.928 210.235,121.428 208.5,112C 210.232,110.028 211.565,107.861 212.5,105.5C 212.733,103.938 213.4,102.605 214.5,101.5C 218.998,102.411 223.332,103.911 227.5,106C 234.091,108.244 236.591,106.077 235,99.5C 228.855,95.0198 223.022,90.1865 217.5,85C 217.645,84.228 217.978,83.5613 218.5,83C 224.487,79.5681 230.821,78.4015 237.5,79.5C 237.66,72.9884 234.993,67.8218 229.5,64C 214.468,57.5132 202.801,61.3466 194.5,75.5C 194.5,70.1667 194.5,64.8333 194.5,59.5C 199.5,59.5 204.5,59.5 209.5,59.5C 209.5,54.5 209.5,49.5 209.5,44.5C 214.5,44.5 219.5,44.5 224.5,44.5C 224.5,49.5 224.5,54.5 224.5,59.5C 229.5,59.5 234.5,59.5 239.5,59.5C 239.5,64.5 239.5,69.5 239.5,74.5C 244.5,74.5 249.5,74.5 254.5,74.5C 254.5,79.5 254.5,84.5 254.5,89.5C 259.5,89.5 264.5,89.5 269.5,89.5C 269.5,94.5 269.5,99.5 269.5,104.5C 274.5,104.5 279.5,104.5 284.5,104.5C 284.5,109.5 284.5,114.5 284.5,119.5C 289.5,119.5 294.5,119.5 299.5,119.5C 299.5,124.5 299.5,129.5 299.5,134.5C 304.5,134.5 309.5,134.5 314.5,134.5C 314.5,139.5 314.5,144.5 314.5,149.5C 319.5,149.5 324.5,149.5 329.5,149.5C 329.5,154.5 329.5,159.5 329.5,164.5C 334.5,164.5 339.5,164.5 344.5,164.5C 344.5,169.5 344.5,174.5 344.5,179.5C 349.5,179.5 354.5,179.5 359.5,179.5 Z"/></g>
<g><path style="opacity:1" fill="#e6a87e" d="M 199.5,93.5 C 204.725,95.9431 209.725,98.6097 214.5,101.5C 213.4,102.605 212.733,103.938 212.5,105.5C 207.796,102.154 203.129,98.8211 198.5,95.5C 199.338,95.1583 199.672,94.4916 199.5,93.5 Z"/></g>
<g><path style="opacity:1" fill="#da5237" d="M 198.5,95.5 C 203.129,98.8211 207.796,102.154 212.5,105.5C 211.565,107.861 210.232,110.028 208.5,112C 210.235,121.428 212.735,130.928 216,140.5C 219.057,142.129 222.223,143.462 225.5,144.5C 223.461,144.948 221.295,145.281 219,145.5C 215.861,144.921 212.861,143.921 210,142.5C 208.884,135.632 207.217,128.632 205,121.5C 199.818,112.82 193.318,110.987 185.5,116C 184.196,116.804 183.529,117.971 183.5,119.5C 189.555,128.591 195.388,137.924 201,147.5C 203.223,149.019 205.556,150.353 208,151.5C 211.794,151.088 215.461,151.088 219,151.5C 221.665,150.379 224.165,149.712 226.5,149.5C 226.76,148.095 227.093,146.762 227.5,145.5C 230.267,145.858 232.933,146.525 235.5,147.5C 233.877,150.215 233.21,153.215 233.5,156.5C 231.585,156.216 229.919,156.549 228.5,157.5C 221.119,157.686 213.786,157.186 206.5,156C 204,155.115 201.667,153.948 199.5,152.5C 197.189,156.956 196.856,161.622 198.5,166.5C 197.833,166.5 197.167,166.5 196.5,166.5C 196.631,165.761 196.464,165.094 196,164.5C 187.004,168.136 178.171,171.136 169.5,173.5C 169.167,173.5 168.833,173.5 168.5,173.5C 165.29,167.098 163.623,160.264 163.5,153C 164.34,144.474 166.506,136.307 170,128.5C 174.093,116.241 181.926,107.241 193.5,101.5C 194.728,98.9875 196.395,96.9875 198.5,95.5 Z"/></g>
<g><path style="opacity:1" fill="#748691" d="M 244.5,108.5 C 244.5,116.833 244.5,125.167 244.5,133.5C 243.175,129.724 242.509,125.557 242.5,121C 242.509,116.443 243.175,112.276 244.5,108.5 Z"/></g>
<g><path style="opacity:1" fill="#a6b6be" d="M 244.5,108.5 C 245.458,108.953 246.292,109.619 247,110.5C 247.942,113.443 249.108,116.276 250.5,119C 252.677,120.202 255.011,120.702 257.5,120.5C 257.649,121.552 257.483,122.552 257,123.5C 255.164,121.396 252.998,121.062 250.5,122.5C 248.883,125.28 247.716,128.28 247,131.5C 246.292,132.381 245.458,133.047 244.5,133.5C 244.5,125.167 244.5,116.833 244.5,108.5 Z"/></g>
<g><path style="opacity:1" fill="#dd6048" d="M 225.5,144.5 C 226.492,144.328 227.158,144.662 227.5,145.5C 227.093,146.762 226.76,148.095 226.5,149.5C 224.165,149.712 221.665,150.379 219,151.5C 215.461,151.088 211.794,151.088 208,151.5C 205.556,150.353 203.223,149.019 201,147.5C 195.388,137.924 189.555,128.591 183.5,119.5C 183.529,117.971 184.196,116.804 185.5,116C 193.318,110.987 199.818,112.82 205,121.5C 207.217,128.632 208.884,135.632 210,142.5C 212.861,143.921 215.861,144.921 219,145.5C 221.295,145.281 223.461,144.948 225.5,144.5 Z"/></g>
<g><path style="opacity:1" fill="#e98d62" d="M 63.5,143.5 C 92.6619,142.502 121.995,142.169 151.5,142.5C 151.813,146.042 151.479,149.375 150.5,152.5C 150.5,149.5 150.5,146.5 150.5,143.5C 121.5,143.5 92.5,143.5 63.5,143.5 Z"/></g>
<g><path style="opacity:1" fill="#4d5665" d="M 278.5,144.5 C 278.5,150.167 278.5,155.833 278.5,161.5C 277.833,161.5 277.167,161.5 276.5,161.5C 270.978,161.548 265.645,162.548 260.5,164.5C 260.296,162.315 259.63,160.315 258.5,158.5C 256.708,157.691 254.708,157.191 252.5,157C 253.98,154.765 253.647,152.932 251.5,151.5C 251.5,151.167 251.5,150.833 251.5,150.5C 254.607,150.826 256.94,149.659 258.5,147C 261.167,146.333 263.833,145.667 266.5,145C 269.709,142.56 273.375,141.893 277.5,143C 278.056,143.383 278.389,143.883 278.5,144.5 Z"/></g>
<g><path style="opacity:1" fill="#de6048" d="M 63.5,143.5 C 92.5,143.5 121.5,143.5 150.5,143.5C 150.5,146.5 150.5,149.5 150.5,152.5C 149.833,162.5 149.167,172.5 148.5,182.5C 148.5,172.833 148.5,163.167 148.5,153.5C 121.259,153.828 94.0925,153.495 67,152.5C 66.5002,163.161 66.3335,173.828 66.5,184.5C 65.7975,170.951 64.7975,157.284 63.5,143.5 Z"/></g>
<g><path style="opacity:1" fill="#63b9b1" d="M 278.5,144.5 C 281.082,144.025 283.082,144.692 284.5,146.5C 284.5,151.167 284.5,155.833 284.5,160.5C 284.03,161.693 283.03,162.36 281.5,162.5C 280.274,162.48 279.274,162.147 278.5,161.5C 278.5,155.833 278.5,150.167 278.5,144.5 Z"/></g>
<g><path style="opacity:1" fill="#e6ab82" d="M 251.5,150.5 C 251.5,150.833 251.5,151.167 251.5,151.5C 249.716,151.893 248.05,152.559 246.5,153.5C 242.931,149.242 240.598,149.909 239.5,155.5C 236.169,157.298 232.502,157.964 228.5,157.5C 229.919,156.549 231.585,156.216 233.5,156.5C 233.21,153.215 233.877,150.215 235.5,147.5C 239.446,146.473 243.446,146.306 247.5,147C 249.544,147.498 250.878,148.665 251.5,150.5 Z"/></g>
<g><path style="opacity:1" fill="#fbd06f" d="M 284.5,146.5 C 289.833,151.167 289.833,155.833 284.5,160.5C 284.5,155.833 284.5,151.167 284.5,146.5 Z"/></g>
<g><path style="opacity:1" fill="#77b7b5" d="M 246.5,153.5 C 246.67,154.822 246.337,155.989 245.5,157C 250.728,158.268 252.728,156.434 251.5,151.5C 253.647,152.932 253.98,154.765 252.5,157C 254.708,157.191 256.708,157.691 258.5,158.5C 253.156,158.666 247.823,158.499 242.5,158C 241.058,157.623 240.058,156.79 239.5,155.5C 240.598,149.909 242.931,149.242 246.5,153.5 Z"/></g>
<g><path style="opacity:1" fill="#da4f35" d="M 148.5,182.5 C 147.33,192.005 141.997,197.672 132.5,199.5C 130.167,199.5 127.833,199.5 125.5,199.5C 118.5,199.5 111.5,199.5 104.5,199.5C 101.5,199.5 98.5,199.5 95.5,199.5C 86.1823,201.011 77.849,199.011 70.5,193.5C 68.8946,190.622 67.5612,187.622 66.5,184.5C 66.3335,173.828 66.5002,163.161 67,152.5C 94.0925,153.495 121.259,153.828 148.5,153.5C 148.5,163.167 148.5,172.833 148.5,182.5 Z"/></g>
<g><path style="opacity:1" fill="#4a5362" d="M 251.5,151.5 C 252.728,156.434 250.728,158.268 245.5,157C 246.337,155.989 246.67,154.822 246.5,153.5C 248.05,152.559 249.716,151.893 251.5,151.5 Z"/></g>
<g><path style="opacity:1" fill="#64b9b2" d="M 276.5,161.5 C 276.5,163.5 276.5,165.5 276.5,167.5C 271.817,168.837 267.15,170.17 262.5,171.5C 261.061,169.412 260.394,167.079 260.5,164.5C 265.645,162.548 270.978,161.548 276.5,161.5 Z"/></g>
<g><path style="opacity:1" fill="#e87b52" d="M 196.5,166.5 C 190.192,168.984 183.859,171.484 177.5,174C 174.633,174.801 171.966,174.634 169.5,173.5C 178.171,171.136 187.004,168.136 196,164.5C 196.464,165.094 196.631,165.761 196.5,166.5 Z"/></g>
<g><path style="opacity:1" fill="#099cb7" d="M 196.5,166.5 C 197.167,166.5 197.833,166.5 198.5,166.5C 209.499,168.277 220.165,171.277 230.5,175.5C 235.483,178.454 240.816,180.954 246.5,183C 249.041,185.409 250.374,188.076 250.5,191C 247.902,199.857 244.236,208.19 239.5,216C 240.634,217.016 240.301,217.683 238.5,218C 239.634,219.016 239.301,219.683 237.5,220C 237.833,220.333 238.167,220.667 238.5,221C 236.083,222.144 235.416,223.81 236.5,226C 233.823,227.463 232.823,229.463 233.5,232C 230.195,236.107 227.529,240.607 225.5,245.5C 224.234,246.09 222.901,246.59 221.5,247C 214.842,247.5 208.175,247.666 201.5,247.5C 201.584,244.673 202.25,242.006 203.5,239.5C 208.127,229.856 212.793,220.189 217.5,210.5C 220.836,205.802 223.836,200.802 226.5,195.5C 225.995,194.081 224.995,193.415 223.5,193.5C 210.682,193.011 197.349,192.511 183.5,192C 178.277,191.389 173.943,189.222 170.5,185.5C 167.539,181.792 166.873,177.792 168.5,173.5C 168.833,173.5 169.167,173.5 169.5,173.5C 171.966,174.634 174.633,174.801 177.5,174C 183.859,171.484 190.192,168.984 196.5,166.5 Z"/></g>
<g><path style="opacity:1" fill="#1b9696" d="M 276.5,167.5 C 279.168,169.336 281.334,171.669 283,174.5C 284.82,183.297 287.82,191.63 292,199.5C 296.485,203.408 301.152,207.074 306,210.5C 306.659,213.888 306.492,217.221 305.5,220.5C 299.516,223.828 293.85,227.661 288.5,232C 294.713,228.062 301.38,224.895 308.5,222.5C 315.613,222.252 322.613,222.918 329.5,224.5C 334.797,226.815 339.797,229.648 344.5,233C 348.175,236.203 350.342,240.036 351,244.5C 350.196,245.804 349.029,246.471 347.5,246.5C 342.683,245.253 338.016,245.253 333.5,246.5C 316.034,243.648 301.2,248.648 289,261.5C 287.223,264.059 285.723,266.726 284.5,269.5C 279.833,269.5 275.167,269.5 270.5,269.5C 270.32,265.153 272.153,261.819 276,259.5C 276.667,258.833 276.667,258.167 276,257.5C 272.629,260.703 269.462,264.036 266.5,267.5C 261.785,270.187 256.785,272.354 251.5,274C 227.167,274.667 202.833,274.667 178.5,274C 177.255,273.209 175.922,272.709 174.5,272.5C 172.539,270.202 171.539,267.535 171.5,264.5C 141.852,262.508 111.852,261.841 81.5,262.5C 81.5,260.5 81.5,258.5 81.5,256.5C 59.5,256.5 37.5,256.5 15.5,256.5C 14.9569,256.44 14.6236,256.107 14.5,255.5C 36.8234,254.5 59.1567,254.167 81.5,254.5C 81.5,251.5 81.5,248.5 81.5,245.5C 56.5,245.5 31.5,245.5 6.5,245.5C 6.5,244.5 6.5,243.5 6.5,242.5C 31.8421,242.833 57.1754,242.5 82.5,241.5C 83.5,238.833 84.5,236.167 85.5,233.5C 70.1811,232.501 54.8478,232.167 39.5,232.5C 39.5,231.5 39.5,230.5 39.5,229.5C 55.5139,229.833 71.5139,229.499 87.5,228.5C 88.7629,226.971 89.7629,225.305 90.5,223.5C 93.8049,219.859 97.1383,216.192 100.5,212.5C 101.492,212.672 102.158,212.338 102.5,211.5C 105.232,210.134 107.899,208.801 110.5,207.5C 115.119,206.686 119.786,206.353 124.5,206.5C 133.513,206.717 142.513,206.384 151.5,205.5C 168.382,206.077 187.382,206.077 208.5,205.5C 205.921,208.135 202.921,210.301 199.5,212C 196.152,214.501 193.818,217.668 192.5,221.5C 190.837,223.493 189.67,225.826 189,228.5C 187.058,238.205 188.892,247.038 194.5,255C 197.632,256.782 200.965,257.948 204.5,258.5C 219.5,258.5 234.5,258.5 249.5,258.5C 255.237,258.216 260.07,255.883 264,251.5C 271.86,238.9 274.527,225.233 272,210.5C 270.473,203.057 268.639,195.724 266.5,188.5C 268.083,183.345 269.75,178.178 271.5,173C 271.167,172.5 270.833,172 270.5,171.5C 268.142,173.287 265.475,174.287 262.5,174.5C 261.375,173.652 261.375,172.652 262.5,171.5C 267.15,170.17 271.817,168.837 276.5,167.5 Z"/></g>
<g><path style="opacity:1" fill="#66bab3" d="M 266.5,188.5 C 265.051,183.955 263.717,179.289 262.5,174.5C 265.475,174.287 268.142,173.287 270.5,171.5C 270.833,172 271.167,172.5 271.5,173C 269.75,178.178 268.083,183.345 266.5,188.5 Z"/></g>
<g><path style="opacity:1" fill="#05858e" d="M 280.5,182.5 C 282.932,188.287 285.099,194.287 287,200.5C 288.413,203.661 290.08,206.661 292,209.5C 295.135,211.839 298.302,213.339 301.5,214C 299.316,218.64 295.983,219.64 291.5,217C 286.358,211.13 283.691,204.797 283.5,198C 281.927,192.97 280.927,187.803 280.5,182.5 Z"/></g>
<g><path style="opacity:1" fill="#4b5362" d="M 170.5,185.5 C 173.943,189.222 178.277,191.389 183.5,192C 197.349,192.511 210.682,193.011 223.5,193.5C 223.909,200.706 220.576,204.706 213.5,205.5C 211.833,205.5 210.167,205.5 208.5,205.5C 187.382,206.077 168.382,206.077 151.5,205.5C 151.167,205.5 150.833,205.5 150.5,205.5C 148.508,203.014 147.174,200.18 146.5,197C 149.842,183.83 157.842,179.997 170.5,185.5 Z"/></g>
<g><path style="opacity:1" fill="#a1bbc0" d="M 125.5,199.5 C 127.833,199.5 130.167,199.5 132.5,199.5C 132.357,201.262 132.691,202.929 133.5,204.5C 139.128,205.495 144.794,205.829 150.5,205.5C 150.833,205.5 151.167,205.5 151.5,205.5C 142.513,206.384 133.513,206.717 124.5,206.5C 125.369,204.283 125.702,201.95 125.5,199.5 Z"/></g>
<g><path style="opacity:1" fill="#aab7be" d="M 95.5,199.5 C 98.5,199.5 101.5,199.5 104.5,199.5C 106.122,202.455 108.122,205.122 110.5,207.5C 107.899,208.801 105.232,210.134 102.5,211.5C 100.167,207.5 97.8333,203.5 95.5,199.5 Z"/></g>
<g><path style="opacity:1" fill="#f6f5f3" d="M 104.5,199.5 C 111.5,199.5 118.5,199.5 125.5,199.5C 125.702,201.95 125.369,204.283 124.5,206.5C 119.786,206.353 115.119,206.686 110.5,207.5C 108.122,205.122 106.122,202.455 104.5,199.5 Z"/></g>
<g><path style="opacity:1" fill="#a4b1b9" d="M 81.5,206.5 C 87.2871,205.35 92.9537,206.183 98.5,209C 99.8228,209.816 100.489,210.983 100.5,212.5C 97.1383,216.192 93.8049,219.859 90.5,223.5C 89.7978,222.884 88.7978,222.884 87.5,223.5C 87.5,217.833 87.5,212.167 87.5,206.5C 85.5,206.5 83.5,206.5 81.5,206.5 Z"/></g>
<g><path style="opacity:1" fill="#495362" d="M 81.5,206.5 C 83.5,206.5 85.5,206.5 87.5,206.5C 87.5,212.167 87.5,217.833 87.5,223.5C 85.5,223.5 83.5,223.5 81.5,223.5C 81.5,217.833 81.5,212.167 81.5,206.5 Z"/></g>
<g><path style="opacity:1" fill="#abbac2" d="M 208.5,205.5 C 210.167,205.5 211.833,205.5 213.5,205.5C 205.238,209.136 198.238,214.469 192.5,221.5C 193.818,217.668 196.152,214.501 199.5,212C 202.921,210.301 205.921,208.135 208.5,205.5 Z"/></g>
<g><path style="opacity:1" fill="#05858e" d="M 142.5,215.5 C 148.243,215.557 154.243,217.057 160.5,220C 161.869,222.239 161.369,224.073 159,225.5C 156.083,223.972 153.083,222.639 150,221.5C 147.207,221.928 144.207,221.928 141,221.5C 136.778,221.559 132.611,222.059 128.5,223C 122.724,224.707 117.057,226.374 111.5,228C 120.886,221.157 131.22,216.99 142.5,215.5 Z"/></g>
<g><path style="opacity:1" fill="#1f909b" d="M 230.5,175.5 C 236.793,176.811 242.793,178.978 248.5,182C 252.858,186.494 253.691,191.661 251,197.5C 243.281,211.99 237.948,227.324 235,243.5C 232.196,245.344 229.03,246.011 225.5,245.5C 227.529,240.607 230.195,236.107 233.5,232C 232.823,229.463 233.823,227.463 236.5,226C 235.416,223.81 236.083,222.144 238.5,221C 238.167,220.667 237.833,220.333 237.5,220C 239.301,219.683 239.634,219.016 238.5,218C 240.301,217.683 240.634,217.016 239.5,216C 244.236,208.19 247.902,199.857 250.5,191C 250.374,188.076 249.041,185.409 246.5,183C 240.816,180.954 235.483,178.454 230.5,175.5 Z"/></g>
<g><path style="opacity:1" fill="#aabbc2" d="M 305.5,220.5 C 305.821,222.048 306.821,222.715 308.5,222.5C 301.38,224.895 294.713,228.062 288.5,232C 293.85,227.661 299.516,223.828 305.5,220.5 Z"/></g>
<g><path style="opacity:1" fill="#f2f3f3" d="M 228.5,157.5 C 232.502,157.964 236.169,157.298 239.5,155.5C 240.058,156.79 241.058,157.623 242.5,158C 247.823,158.499 253.156,158.666 258.5,158.5C 259.63,160.315 260.296,162.315 260.5,164.5C 260.394,167.079 261.061,169.412 262.5,171.5C 261.375,172.652 261.375,173.652 262.5,174.5C 263.717,179.289 265.051,183.955 266.5,188.5C 268.639,195.724 270.473,203.057 272,210.5C 274.527,225.233 271.86,238.9 264,251.5C 260.07,255.883 255.237,258.216 249.5,258.5C 249.586,257.504 249.252,256.671 248.5,256C 246.527,255.505 244.527,255.338 242.5,255.5C 249.397,251.584 248.731,249.251 240.5,248.5C 240.719,249.675 240.386,250.675 239.5,251.5C 234.293,247.085 230.293,248.085 227.5,254.5C 221.263,253.36 215.096,253.36 209,254.5C 208.311,250.708 206.144,248.708 202.5,248.5C 201.41,251.814 202.077,254.814 204.5,257.5C 204.5,257.833 204.5,258.167 204.5,258.5C 200.965,257.948 197.632,256.782 194.5,255C 188.892,247.038 187.058,238.205 189,228.5C 189.67,225.826 190.837,223.493 192.5,221.5C 198.238,214.469 205.238,209.136 213.5,205.5C 220.576,204.706 223.909,200.706 223.5,193.5C 224.995,193.415 225.995,194.081 226.5,195.5C 223.836,200.802 220.836,205.802 217.5,210.5C 215.052,209.527 212.385,209.194 209.5,209.5C 209.5,214.5 209.5,219.5 209.5,224.5C 204.5,224.5 199.5,224.5 194.5,224.5C 194.5,229.5 194.5,234.5 194.5,239.5C 197.5,239.5 200.5,239.5 203.5,239.5C 202.25,242.006 201.584,244.673 201.5,247.5C 208.175,247.666 214.842,247.5 221.5,247C 222.901,246.59 224.234,246.09 225.5,245.5C 229.03,246.011 232.196,245.344 235,243.5C 237.948,227.324 243.281,211.99 251,197.5C 253.691,191.661 252.858,186.494 248.5,182C 242.793,178.978 236.793,176.811 230.5,175.5C 220.165,171.277 209.499,168.277 198.5,166.5C 196.856,161.622 197.189,156.956 199.5,152.5C 201.667,153.948 204,155.115 206.5,156C 213.786,157.186 221.119,157.686 228.5,157.5 Z"/></g>
<g><path style="opacity:1" fill="#fcfdfd" d="M 217.5,210.5 C 212.793,220.189 208.127,229.856 203.5,239.5C 200.5,239.5 197.5,239.5 194.5,239.5C 194.5,234.5 194.5,229.5 194.5,224.5C 199.5,224.5 204.5,224.5 209.5,224.5C 209.5,219.5 209.5,214.5 209.5,209.5C 212.385,209.194 215.052,209.527 217.5,210.5 Z"/></g>
<g><path style="opacity:1" fill="#05858e" d="M 318.5,228.5 C 325.27,227.876 331.936,229.042 338.5,232C 341.303,234.222 341.137,236.055 338,237.5C 333.82,235.55 329.486,234.217 325,233.5C 322,233.5 319,233.5 316,233.5C 310.603,233.691 305.27,235.025 300,237.5C 299.5,237.333 299,237.167 298.5,237C 304.934,233.274 311.601,230.44 318.5,228.5 Z"/></g>
<g><path style="opacity:1" fill="#f5f6f6" d="M 70.5,193.5 C 77.849,199.011 86.1823,201.011 95.5,199.5C 97.8333,203.5 100.167,207.5 102.5,211.5C 102.158,212.338 101.492,212.672 100.5,212.5C 100.489,210.983 99.8228,209.816 98.5,209C 92.9537,206.183 87.2871,205.35 81.5,206.5C 81.5,212.167 81.5,217.833 81.5,223.5C 83.5,223.5 85.5,223.5 87.5,223.5C 88.7978,222.884 89.7978,222.884 90.5,223.5C 89.7629,225.305 88.7629,226.971 87.5,228.5C 71.5139,229.499 55.5139,229.833 39.5,229.5C 39.5,230.5 39.5,231.5 39.5,232.5C 54.8478,232.167 70.1811,232.501 85.5,233.5C 84.5,236.167 83.5,238.833 82.5,241.5C 57.1754,242.5 31.8421,242.833 6.5,242.5C 6.5,243.5 6.5,244.5 6.5,245.5C 31.5,245.5 56.5,245.5 81.5,245.5C 81.5,248.5 81.5,251.5 81.5,254.5C 59.1567,254.167 36.8234,254.5 14.5,255.5C 14.6236,256.107 14.9569,256.44 15.5,256.5C 24.9856,257.494 34.6522,257.827 44.5,257.5C 44.5,266.5 44.5,275.5 44.5,284.5C 49.5,284.5 54.5,284.5 59.5,284.5C 59.5,289.5 59.5,294.5 59.5,299.5C 64.5,299.5 69.5,299.5 74.5,299.5C 74.5,304.5 74.5,309.5 74.5,314.5C 79.5,314.5 84.5,314.5 89.5,314.5C 89.5,319.5 89.5,324.5 89.5,329.5C 94.5,329.5 99.5,329.5 104.5,329.5C 104.5,334.5 104.5,339.5 104.5,344.5C 109.5,344.5 114.5,344.5 119.5,344.5C 119.5,349.5 119.5,354.5 119.5,359.5C 124.5,359.5 129.5,359.5 134.5,359.5C 134.5,364.5 134.5,369.5 134.5,374.5C 139.5,374.5 144.5,374.5 149.5,374.5C 149.5,379.5 149.5,384.5 149.5,389.5C 154.5,389.5 159.5,389.5 164.5,389.5C 164.5,394.5 164.5,399.5 164.5,404.5C 169.5,404.5 174.5,404.5 179.5,404.5C 179.5,409.5 179.5,414.5 179.5,419.5C 179.5,424.5 179.5,429.5 179.5,434.5C 174.5,434.5 169.5,434.5 164.5,434.5C 164.5,429.5 164.5,424.5 164.5,419.5C 159.5,419.5 154.5,419.5 149.5,419.5C 149.5,424.5 149.5,429.5 149.5,434.5C 144.5,434.5 139.5,434.5 134.5,434.5C 134.5,429.5 134.5,424.5 134.5,419.5C 129.5,419.5 124.5,419.5 119.5,419.5C 119.5,424.5 119.5,429.5 119.5,434.5C 114.5,434.5 109.5,434.5 104.5,434.5C 104.5,429.5 104.5,424.5 104.5,419.5C 99.5,419.5 94.5,419.5 89.5,419.5C 89.5,424.5 89.5,429.5 89.5,434.5C 84.5,434.5 79.5,434.5 74.5,434.5C 74.5,429.5 74.5,424.5 74.5,419.5C 69.5,419.5 64.5,419.5 59.5,419.5C 59.5,424.5 59.5,429.5 59.5,434.5C 54.5,434.5 49.5,434.5 44.5,434.5C 44.5,429.5 44.5,424.5 44.5,419.5C 39.5,419.5 34.5,419.5 29.5,419.5C 29.5,424.5 29.5,429.5 29.5,434.5C 24.5,434.5 19.5,434.5 14.5,434.5C 14.5,429.5 14.5,424.5 14.5,419.5C 9.5,419.5 4.5,419.5 -0.5,419.5C -0.5,359.5 -0.5,299.5 -0.5,239.5C 4.5,239.5 9.5,239.5 14.5,239.5C 14.5,234.5 14.5,229.5 14.5,224.5C 24.5,224.5 34.5,224.5 44.5,224.5C 44.5,219.5 44.5,214.5 44.5,209.5C 49.5,209.5 54.5,209.5 59.5,209.5C 59.5,204.5 59.5,199.5 59.5,194.5C 63.3714,194.815 67.0381,194.482 70.5,193.5 Z"/></g>
<g><path style="opacity:1" fill="#fbd06f" d="M 78.5,207.5 C 79.8086,209.571 80.4752,212.071 80.5,215C 80.3333,217.5 80.1667,220 80,222.5C 74.6032,218.009 74.1032,213.009 78.5,207.5 Z"/></g>
<g><path style="opacity:1" fill="#4b5362" d="M 333.5,246.5 C 349.737,256.371 354.57,270.371 348,288.5C 338.825,305.663 324.658,311.829 305.5,307C 293.839,301.837 286.839,293.003 284.5,280.5C 284.5,276.833 284.5,273.167 284.5,269.5C 285.723,266.726 287.223,264.059 289,261.5C 301.2,248.648 316.034,243.648 333.5,246.5 Z"/></g>
<g><path style="opacity:1" fill="#d6bbae" d="M 242.5,255.5 C 229.915,257.226 217.248,257.892 204.5,257.5C 202.077,254.814 201.41,251.814 202.5,248.5C 206.144,248.708 208.311,250.708 209,254.5C 215.096,253.36 221.263,253.36 227.5,254.5C 230.293,248.085 234.293,247.085 239.5,251.5C 240.386,250.675 240.719,249.675 240.5,248.5C 248.731,249.251 249.397,251.584 242.5,255.5 Z"/></g>
<g><path style="opacity:1" fill="#505c6a" d="M 242.5,255.5 C 244.527,255.338 246.527,255.505 248.5,256C 249.252,256.671 249.586,257.504 249.5,258.5C 234.5,258.5 219.5,258.5 204.5,258.5C 204.5,258.167 204.5,257.833 204.5,257.5C 217.248,257.892 229.915,257.226 242.5,255.5 Z"/></g>
<g><path style="opacity:1" fill="#f4f3f1" d="M 310.5,256.5 C 329.692,254.858 338.192,263.525 336,282.5C 330.499,292.678 321.999,296.511 310.5,294C 298.072,286.978 294.905,277.145 301,264.5C 303.772,261.217 306.939,258.55 310.5,256.5 Z"/></g>
<g><path style="opacity:1" fill="#f3f3f3" d="M 15.5,256.5 C 37.5,256.5 59.5,256.5 81.5,256.5C 81.5,258.5 81.5,260.5 81.5,262.5C 87.2645,264.147 93.2645,265.147 99.5,265.5C 95.8944,284.956 102.894,298.956 120.5,307.5C 119.532,309.607 119.198,311.941 119.5,314.5C 124.5,314.5 129.5,314.5 134.5,314.5C 134.5,319.5 134.5,324.5 134.5,329.5C 139.5,329.5 144.5,329.5 149.5,329.5C 149.5,334.5 149.5,339.5 149.5,344.5C 154.5,344.5 159.5,344.5 164.5,344.5C 164.5,349.5 164.5,354.5 164.5,359.5C 169.5,359.5 174.5,359.5 179.5,359.5C 179.5,364.5 179.5,369.5 179.5,374.5C 184.5,374.5 189.5,374.5 194.5,374.5C 194.5,379.5 194.5,384.5 194.5,389.5C 199.5,389.5 204.5,389.5 209.5,389.5C 209.5,394.5 209.5,399.5 209.5,404.5C 214.5,404.5 219.5,404.5 224.5,404.5C 224.5,409.5 224.5,414.5 224.5,419.5C 219.5,419.5 214.5,419.5 209.5,419.5C 209.5,424.5 209.5,429.5 209.5,434.5C 204.5,434.5 199.5,434.5 194.5,434.5C 194.5,429.5 194.5,424.5 194.5,419.5C 189.5,419.5 184.5,419.5 179.5,419.5C 179.5,414.5 179.5,409.5 179.5,404.5C 174.5,404.5 169.5,404.5 164.5,404.5C 164.5,399.5 164.5,394.5 164.5,389.5C 159.5,389.5 154.5,389.5 149.5,389.5C 149.5,384.5 149.5,379.5 149.5,374.5C 144.5,374.5 139.5,374.5 134.5,374.5C 134.5,369.5 134.5,364.5 134.5,359.5C 129.5,359.5 124.5,359.5 119.5,359.5C 119.5,354.5 119.5,349.5 119.5,344.5C 114.5,344.5 109.5,344.5 104.5,344.5C 104.5,339.5 104.5,334.5 104.5,329.5C 99.5,329.5 94.5,329.5 89.5,329.5C 89.5,324.5 89.5,319.5 89.5,314.5C 84.5,314.5 79.5,314.5 74.5,314.5C 74.5,309.5 74.5,304.5 74.5,299.5C 69.5,299.5 64.5,299.5 59.5,299.5C 59.5,294.5 59.5,289.5 59.5,284.5C 54.5,284.5 49.5,284.5 44.5,284.5C 44.5,275.5 44.5,266.5 44.5,257.5C 34.6522,257.827 24.9856,257.494 15.5,256.5 Z"/></g>
<g><path style="opacity:1" fill="#a4b5bc" d="M 81.5,262.5 C 111.852,261.841 141.852,262.508 171.5,264.5C 168.941,264.198 166.607,264.532 164.5,265.5C 161.92,264.884 159.253,264.551 156.5,264.5C 153.731,264.529 151.397,265.195 149.5,266.5C 147.886,264.925 145.886,264.259 143.5,264.5C 135.833,264.5 128.167,264.5 120.5,264.5C 118.833,264.5 117.167,264.5 115.5,264.5C 110.073,264.218 104.74,264.551 99.5,265.5C 93.2645,265.147 87.2645,264.147 81.5,262.5 Z"/></g>
<g><path style="opacity:1" fill="#4b5462" d="M 115.5,264.5 C 110.163,275.312 112.163,284.479 121.5,292C 131.365,296.388 140.198,294.888 148,287.5C 151.831,280.568 152.331,273.568 149.5,266.5C 151.397,265.195 153.731,264.529 156.5,264.5C 159.253,264.551 161.92,264.884 164.5,265.5C 165.715,271.82 165.715,278.153 164.5,284.5C 156.466,304.189 141.799,311.856 120.5,307.5C 102.894,298.956 95.8944,284.956 99.5,265.5C 104.74,264.551 110.073,264.218 115.5,264.5 Z"/></g>
<g><path style="opacity:1" fill="#f5f4f2" d="M 115.5,264.5 C 117.167,264.5 118.833,264.5 120.5,264.5C 113.084,277.753 116.584,286.753 131,291.5C 146.926,288.305 151.093,279.305 143.5,264.5C 145.886,264.259 147.886,264.925 149.5,266.5C 152.331,273.568 151.831,280.568 148,287.5C 140.198,294.888 131.365,296.388 121.5,292C 112.163,284.479 110.163,275.312 115.5,264.5 Z"/></g>
<g><path style="opacity:1" fill="#fbcf70" d="M 120.5,264.5 C 128.167,264.5 135.833,264.5 143.5,264.5C 151.093,279.305 146.926,288.305 131,291.5C 116.584,286.753 113.084,277.753 120.5,264.5 Z"/></g>
<g><path style="opacity:1" fill="#4e5764" d="M 131.5,272.5 C 135.184,274.203 135.351,276.203 132,278.5C 128.898,276.663 128.731,274.663 131.5,272.5 Z"/></g>
<g><path style="opacity:1" fill="#f6f6f6" d="M 359.5,404.5 C 359.5,414.5 359.5,424.5 359.5,434.5C 354.5,434.5 349.5,434.5 344.5,434.5C 344.5,429.5 344.5,424.5 344.5,419.5C 339.5,419.5 334.5,419.5 329.5,419.5C 329.5,424.5 329.5,429.5 329.5,434.5C 324.5,434.5 319.5,434.5 314.5,434.5C 314.5,429.5 314.5,424.5 314.5,419.5C 309.5,419.5 304.5,419.5 299.5,419.5C 299.5,414.5 299.5,409.5 299.5,404.5C 294.5,404.5 289.5,404.5 284.5,404.5C 284.5,399.5 284.5,394.5 284.5,389.5C 279.5,389.5 274.5,389.5 269.5,389.5C 269.5,384.5 269.5,379.5 269.5,374.5C 264.5,374.5 259.5,374.5 254.5,374.5C 254.5,369.5 254.5,364.5 254.5,359.5C 249.5,359.5 244.5,359.5 239.5,359.5C 239.5,354.5 239.5,349.5 239.5,344.5C 234.5,344.5 229.5,344.5 224.5,344.5C 224.5,339.5 224.5,334.5 224.5,329.5C 219.5,329.5 214.5,329.5 209.5,329.5C 209.5,324.5 209.5,319.5 209.5,314.5C 204.5,314.5 199.5,314.5 194.5,314.5C 194.5,309.5 194.5,304.5 194.5,299.5C 189.5,299.5 184.5,299.5 179.5,299.5C 179.5,294.5 179.5,289.5 179.5,284.5C 179.958,281.606 179.291,279.106 177.5,277C 178.167,276.833 178.833,276.667 179.5,276.5C 184.182,277.139 188.682,277.139 193,276.5C 194.375,278.937 194.875,281.603 194.5,284.5C 199.5,284.5 204.5,284.5 209.5,284.5C 209.187,281.753 209.52,279.086 210.5,276.5C 214.737,276.694 218.903,276.694 223,276.5C 224.375,278.937 224.875,281.603 224.5,284.5C 229.5,284.5 234.5,284.5 239.5,284.5C 239.5,289.5 239.5,294.5 239.5,299.5C 244.5,299.5 249.5,299.5 254.5,299.5C 254.5,304.5 254.5,309.5 254.5,314.5C 259.5,314.5 264.5,314.5 269.5,314.5C 269.5,319.5 269.5,324.5 269.5,329.5C 274.5,329.5 279.5,329.5 284.5,329.5C 284.5,334.5 284.5,339.5 284.5,344.5C 289.5,344.5 294.5,344.5 299.5,344.5C 299.5,349.5 299.5,354.5 299.5,359.5C 304.5,359.5 309.5,359.5 314.5,359.5C 314.5,364.5 314.5,369.5 314.5,374.5C 319.5,374.5 324.5,374.5 329.5,374.5C 329.5,379.5 329.5,384.5 329.5,389.5C 334.5,389.5 339.5,389.5 344.5,389.5C 344.5,394.5 344.5,399.5 344.5,404.5C 349.5,404.5 354.5,404.5 359.5,404.5 Z"/></g>
<g><path style="opacity:1" fill="#f7f7f7" d="M 164.5,284.5 C 169.5,284.5 174.5,284.5 179.5,284.5C 179.5,289.5 179.5,294.5 179.5,299.5C 184.5,299.5 189.5,299.5 194.5,299.5C 194.5,304.5 194.5,309.5 194.5,314.5C 199.5,314.5 204.5,314.5 209.5,314.5C 209.5,319.5 209.5,324.5 209.5,329.5C 214.5,329.5 219.5,329.5 224.5,329.5C 224.5,334.5 224.5,339.5 224.5,344.5C 229.5,344.5 234.5,344.5 239.5,344.5C 239.5,349.5 239.5,354.5 239.5,359.5C 244.5,359.5 249.5,359.5 254.5,359.5C 254.5,364.5 254.5,369.5 254.5,374.5C 259.5,374.5 264.5,374.5 269.5,374.5C 269.5,379.5 269.5,384.5 269.5,389.5C 274.5,389.5 279.5,389.5 284.5,389.5C 284.5,394.5 284.5,399.5 284.5,404.5C 289.5,404.5 294.5,404.5 299.5,404.5C 299.5,409.5 299.5,414.5 299.5,419.5C 299.5,424.5 299.5,429.5 299.5,434.5C 294.5,434.5 289.5,434.5 284.5,434.5C 284.5,429.5 284.5,424.5 284.5,419.5C 279.5,419.5 274.5,419.5 269.5,419.5C 269.5,424.5 269.5,429.5 269.5,434.5C 264.5,434.5 259.5,434.5 254.5,434.5C 254.5,429.5 254.5,424.5 254.5,419.5C 249.5,419.5 244.5,419.5 239.5,419.5C 239.5,424.5 239.5,429.5 239.5,434.5C 234.5,434.5 229.5,434.5 224.5,434.5C 224.5,429.5 224.5,424.5 224.5,419.5C 224.5,414.5 224.5,409.5 224.5,404.5C 219.5,404.5 214.5,404.5 209.5,404.5C 209.5,399.5 209.5,394.5 209.5,389.5C 204.5,389.5 199.5,389.5 194.5,389.5C 194.5,384.5 194.5,379.5 194.5,374.5C 189.5,374.5 184.5,374.5 179.5,374.5C 179.5,369.5 179.5,364.5 179.5,359.5C 174.5,359.5 169.5,359.5 164.5,359.5C 164.5,354.5 164.5,349.5 164.5,344.5C 159.5,344.5 154.5,344.5 149.5,344.5C 149.5,339.5 149.5,334.5 149.5,329.5C 144.5,329.5 139.5,329.5 134.5,329.5C 134.5,324.5 134.5,319.5 134.5,314.5C 129.5,314.5 124.5,314.5 119.5,314.5C 119.198,311.941 119.532,309.607 120.5,307.5C 141.799,311.856 156.466,304.189 164.5,284.5 Z"/></g>
<g><path style="opacity:1" fill="#f4f5f5" d="M 359.5,224.5 C 359.5,284.5 359.5,344.5 359.5,404.5C 354.5,404.5 349.5,404.5 344.5,404.5C 344.5,399.5 344.5,394.5 344.5,389.5C 339.5,389.5 334.5,389.5 329.5,389.5C 329.5,384.5 329.5,379.5 329.5,374.5C 324.5,374.5 319.5,374.5 314.5,374.5C 314.5,369.5 314.5,364.5 314.5,359.5C 309.5,359.5 304.5,359.5 299.5,359.5C 299.5,354.5 299.5,349.5 299.5,344.5C 294.5,344.5 289.5,344.5 284.5,344.5C 284.5,339.5 284.5,334.5 284.5,329.5C 279.5,329.5 274.5,329.5 269.5,329.5C 269.5,324.5 269.5,319.5 269.5,314.5C 264.5,314.5 259.5,314.5 254.5,314.5C 254.5,309.5 254.5,304.5 254.5,299.5C 249.5,299.5 244.5,299.5 239.5,299.5C 239.5,294.5 239.5,289.5 239.5,284.5C 234.5,284.5 229.5,284.5 224.5,284.5C 224.875,281.603 224.375,278.937 223,276.5C 218.903,276.694 214.737,276.694 210.5,276.5C 209.52,279.086 209.187,281.753 209.5,284.5C 204.5,284.5 199.5,284.5 194.5,284.5C 194.875,281.603 194.375,278.937 193,276.5C 188.682,277.139 184.182,277.139 179.5,276.5C 178.833,276.667 178.167,276.833 177.5,277C 179.291,279.106 179.958,281.606 179.5,284.5C 174.5,284.5 169.5,284.5 164.5,284.5C 165.715,278.153 165.715,271.82 164.5,265.5C 166.607,264.532 168.941,264.198 171.5,264.5C 171.539,267.535 172.539,270.202 174.5,272.5C 174.953,273.458 175.619,274.292 176.5,275C 202.167,275.667 227.833,275.667 253.5,275C 258.815,274.015 263.148,271.515 266.5,267.5C 269.462,264.036 272.629,260.703 276,257.5C 276.667,258.167 276.667,258.833 276,259.5C 272.153,261.819 270.32,265.153 270.5,269.5C 274.634,270.485 278.968,270.818 283.5,270.5C 283.187,274.042 283.521,277.375 284.5,280.5C 286.839,293.003 293.839,301.837 305.5,307C 324.658,311.829 338.825,305.663 348,288.5C 354.57,270.371 349.737,256.371 333.5,246.5C 338.016,245.253 342.683,245.253 347.5,246.5C 349.029,246.471 350.196,245.804 351,244.5C 350.342,240.036 348.175,236.203 344.5,233C 339.797,229.648 334.797,226.815 329.5,224.5C 329.5,219.5 329.5,214.5 329.5,209.5C 334.5,209.5 339.5,209.5 344.5,209.5C 344.5,214.5 344.5,219.5 344.5,224.5C 349.5,224.5 354.5,224.5 359.5,224.5 Z"/></g>
<g><path style="opacity:1" fill="#92b7ba" d="M 270.5,269.5 C 275.167,269.5 279.833,269.5 284.5,269.5C 284.5,273.167 284.5,276.833 284.5,280.5C 283.521,277.375 283.187,274.042 283.5,270.5C 278.968,270.818 274.634,270.485 270.5,269.5 Z"/></g>
<g><path style="opacity:1" fill="#acb9c1" d="M 266.5,267.5 C 263.148,271.515 258.815,274.015 253.5,275C 227.833,275.667 202.167,275.667 176.5,275C 175.619,274.292 174.953,273.458 174.5,272.5C 175.922,272.709 177.255,273.209 178.5,274C 202.833,274.667 227.167,274.667 251.5,274C 256.785,272.354 261.785,270.187 266.5,267.5 Z"/></g>
<g><path style="opacity:1" fill="#fbcf70" d="M 315.5,259.5 C 329.236,261.33 334.736,268.663 332,281.5C 324.933,292.071 316.433,293.904 306.5,287C 298.417,274.083 301.417,264.916 315.5,259.5 Z"/></g>
<g><path style="opacity:1" fill="#4f5865" d="M 316.5,272.5 C 318.484,272.484 319.484,273.484 319.5,275.5C 318.137,279.362 316.471,279.362 314.5,275.5C 315.193,274.482 315.859,273.482 316.5,272.5 Z"/></g>
<g><path style="opacity:1" fill="#fcfcfc" d="M -0.5,419.5 C 4.5,419.5 9.5,419.5 14.5,419.5C 14.5,424.5 14.5,429.5 14.5,434.5C 19.5,434.5 24.5,434.5 29.5,434.5C 29.5,429.5 29.5,424.5 29.5,419.5C 34.5,419.5 39.5,419.5 44.5,419.5C 44.5,424.5 44.5,429.5 44.5,434.5C 49.5,434.5 54.5,434.5 59.5,434.5C 59.5,429.5 59.5,424.5 59.5,419.5C 64.5,419.5 69.5,419.5 74.5,419.5C 74.5,424.5 74.5,429.5 74.5,434.5C 79.5,434.5 84.5,434.5 89.5,434.5C 89.5,429.5 89.5,424.5 89.5,419.5C 94.5,419.5 99.5,419.5 104.5,419.5C 104.5,424.5 104.5,429.5 104.5,434.5C 109.5,434.5 114.5,434.5 119.5,434.5C 119.5,429.5 119.5,424.5 119.5,419.5C 124.5,419.5 129.5,419.5 134.5,419.5C 134.5,424.5 134.5,429.5 134.5,434.5C 139.5,434.5 144.5,434.5 149.5,434.5C 149.5,429.5 149.5,424.5 149.5,419.5C 154.5,419.5 159.5,419.5 164.5,419.5C 164.5,424.5 164.5,429.5 164.5,434.5C 169.5,434.5 174.5,434.5 179.5,434.5C 179.5,429.5 179.5,424.5 179.5,419.5C 184.5,419.5 189.5,419.5 194.5,419.5C 194.5,424.5 194.5,429.5 194.5,434.5C 199.5,434.5 204.5,434.5 209.5,434.5C 209.5,429.5 209.5,424.5 209.5,419.5C 214.5,419.5 219.5,419.5 224.5,419.5C 224.5,424.5 224.5,429.5 224.5,434.5C 229.5,434.5 234.5,434.5 239.5,434.5C 239.5,429.5 239.5,424.5 239.5,419.5C 244.5,419.5 249.5,419.5 254.5,419.5C 254.5,424.5 254.5,429.5 254.5,434.5C 259.5,434.5 264.5,434.5 269.5,434.5C 269.5,429.5 269.5,424.5 269.5,419.5C 274.5,419.5 279.5,419.5 284.5,419.5C 284.5,424.5 284.5,429.5 284.5,434.5C 289.5,434.5 294.5,434.5 299.5,434.5C 299.5,429.5 299.5,424.5 299.5,419.5C 304.5,419.5 309.5,419.5 314.5,419.5C 314.5,424.5 314.5,429.5 314.5,434.5C 319.5,434.5 324.5,434.5 329.5,434.5C 329.5,429.5 329.5,424.5 329.5,419.5C 334.5,419.5 339.5,419.5 344.5,419.5C 344.5,424.5 344.5,429.5 344.5,434.5C 349.5,434.5 354.5,434.5 359.5,434.5C 359.5,435.167 359.5,435.833 359.5,436.5C 239.5,436.5 119.5,436.5 -0.5,436.5C -0.5,430.833 -0.5,425.167 -0.5,419.5 Z"/></g>
</svg>
