<?xml version="1.0" encoding="UTF-8"?>
<!DOCTYPE svg PUBLIC "-//W3C//DTD SVG 1.1//EN" "http://www.w3.org/Graphics/SVG/1.1/DTD/svg11.dtd">
<svg xmlns="http://www.w3.org/2000/svg" version="1.1" width="512px" height="512px" style="shape-rendering:geometricPrecision; text-rendering:geometricPrecision; image-rendering:optimizeQuality; fill-rule:evenodd; clip-rule:evenodd" xmlns:xlink="http://www.w3.org/1999/xlink">
<g><path style="opacity:0.965" fill="#000000" d="M 439.5,-0.5 C 445.167,-0.5 450.833,-0.5 456.5,-0.5C 462.173,1.50572 467.507,4.33905 472.5,8C 482.667,18.1667 492.833,28.3333 503,38.5C 506.661,43.4933 509.494,48.8266 511.5,54.5C 511.5,60.1667 511.5,65.8333 511.5,71.5C 509.907,76.02 507.74,80.3533 505,84.5C 427.833,161.667 350.667,238.833 273.5,316C 249.045,322.092 224.378,327.425 199.5,332C 184,333.833 177.167,327 179,311.5C 183.575,286.622 188.908,261.955 195,237.5C 272.167,160.333 349.333,83.1667 426.5,6C 430.647,3.25995 434.98,1.09328 439.5,-0.5 Z M 445.5,30.5 C 447.199,30.3398 448.866,30.5065 450.5,31C 460.333,40.8333 470.167,50.6667 480,60.5C 480.667,62.1667 480.667,63.8333 480,65.5C 474.319,71.3482 468.485,77.0149 462.5,82.5C 450.833,71.5 439.5,60.1667 428.5,48.5C 434.188,42.4796 439.855,36.4796 445.5,30.5 Z M 405.5,70.5 C 417.298,81.798 428.965,93.298 440.5,105C 379.167,166.333 317.833,227.667 256.5,289C 242.166,291.9 227.833,294.734 213.5,297.5C 216.093,282.7 219.26,268.033 223,253.5C 284.035,192.632 344.868,131.632 405.5,70.5 Z"/></g>
<g><path style="opacity:0.987" fill="#000000" d="M 385.5,511.5 C 271.5,511.5 157.5,511.5 43.5,511.5C 20.5,505.167 5.83333,490.5 -0.5,467.5C -0.5,353.5 -0.5,239.5 -0.5,125.5C 5.65211,102.515 20.3188,88.0151 43.5,82C 122.5,81.3333 201.5,81.3333 280.5,82C 288.915,86.3476 291.748,93.1809 289,102.5C 287.5,106.667 284.667,109.5 280.5,111C 205.167,111.333 129.833,111.667 54.5,112C 39.6667,113.5 31.5,121.667 30,136.5C 29.0147,245.526 29.348,354.526 31,463.5C 34.9307,474.551 42.764,480.384 54.5,481C 161.167,481.667 267.833,481.667 374.5,481C 389.333,479.5 397.5,471.333 399,456.5C 399.333,381.167 399.667,305.833 400,230.5C 404.348,222.085 411.181,219.252 420.5,222C 426.447,224.958 429.614,229.791 430,236.5C 430.967,313.518 430.633,390.518 429,467.5C 422.985,490.681 408.485,505.348 385.5,511.5 Z"/></g>
</svg>
