<?xml version="1.0" encoding="UTF-8"?>
<!DOCTYPE svg PUBLIC "-//W3C//DTD SVG 1.1//EN" "http://www.w3.org/Graphics/SVG/1.1/DTD/svg11.dtd">
<svg xmlns="http://www.w3.org/2000/svg" version="1.1" width="512px" height="512px" style="shape-rendering:geometricPrecision; text-rendering:geometricPrecision; image-rendering:optimizeQuality; fill-rule:evenodd; clip-rule:evenodd" xmlns:xlink="http://www.w3.org/1999/xlink">
<g><path style="opacity:0.934" fill="#000000" d="M 247.5,-0.5 C 252.833,-0.5 258.167,-0.5 263.5,-0.5C 300.318,0.693778 336.318,7.19378 371.5,19C 437.268,42.4345 482.101,86.9345 506,152.5C 509.633,167.18 506.133,179.847 495.5,190.5C 503.365,197.335 508.698,205.668 511.5,215.5C 511.5,223.833 511.5,232.167 511.5,240.5C 506.792,256.873 496.125,267.207 479.5,271.5C 479.333,286.17 479.5,300.837 480,315.5C 496.756,320.088 507.256,330.755 511.5,347.5C 511.5,355.833 511.5,364.167 511.5,372.5C 506.885,388.449 496.551,398.782 480.5,403.5C 478.772,451.144 455.772,483.644 411.5,501C 396.176,506.629 380.51,510.129 364.5,511.5C 291.833,511.5 219.167,511.5 146.5,511.5C 115.669,509.389 88.0026,498.889 63.5,480C 41.3609,459.449 30.3609,433.949 30.5,403.5C 14.4486,398.782 4.11524,388.449 -0.5,372.5C -0.5,364.167 -0.5,355.833 -0.5,347.5C 3.74428,330.755 14.2443,320.088 31,315.5C 31.4999,300.837 31.6666,286.17 31.5,271.5C 14.8748,267.207 4.2081,256.873 -0.5,240.5C -0.5,232.167 -0.5,223.833 -0.5,215.5C 2.30174,205.668 7.63507,197.335 15.5,190.5C 4.83431,179.839 1.33431,167.173 5,152.5C 27.1772,89.991 69.1772,46.991 131,23.5C 136.004,23.5025 138.837,26.0025 139.5,31C 139.042,33.831 137.708,36.1643 135.5,38C 83.123,59.044 45.9563,95.544 24,147.5C 21.7635,152.467 20.2635,157.634 19.5,163C 19.9348,172.437 24.6014,178.77 33.5,182C 181.5,182.667 329.5,182.667 477.5,182C 487.919,177.578 492.419,169.745 491,158.5C 466.649,94.4843 421.816,51.9843 356.5,31C 294.198,12.2794 231.531,10.946 168.5,27C 158.47,28.9714 154.636,25.1381 157,15.5C 158.214,13.9512 159.714,12.7845 161.5,12C 189.887,4.8713 218.553,0.704637 247.5,-0.5 Z M 39.5,198.5 C 183.5,198.333 327.5,198.5 471.5,199C 487.427,201.765 495.761,211.265 496.5,227.5C 496.509,238.317 492.176,246.817 483.5,253C 481.043,254.562 478.376,255.562 475.5,256C 328.833,256.667 182.167,256.667 35.5,256C 25.442,253.609 18.942,247.443 16,237.5C 11.4052,216.663 19.2385,203.663 39.5,198.5 Z M 47.5,272.5 C 186.167,272.5 324.833,272.5 463.5,272.5C 463.5,277.833 463.5,283.167 463.5,288.5C 412.499,288.333 361.499,288.5 310.5,289C 305.931,291.541 304.431,295.375 306,300.5C 307.167,301.667 308.333,302.833 309.5,304C 360.832,304.5 412.166,304.667 463.5,304.5C 463.667,315.838 463.5,327.172 463,338.5C 460.361,345.903 455.194,348.737 447.5,347C 431.122,334.106 413.456,332.106 394.5,341C 387.257,347.25 379.257,352.25 370.5,356C 362.82,357.263 355.487,356.263 348.5,353C 341.373,347.213 333.707,342.213 325.5,338C 313.72,334.43 302.053,334.763 290.5,339C 282.893,343.609 275.559,348.609 268.5,354C 260.619,356.896 252.619,357.229 244.5,355C 238.556,351.389 232.889,347.389 227.5,343C 213.141,334.665 198.141,333.331 182.5,339C 174.249,344.925 165.749,350.425 157,355.5C 156.333,340.5 156.333,325.5 157,310.5C 158.251,307.619 160.417,305.786 163.5,305C 202.833,304.667 242.167,304.333 281.5,304C 288.197,298.692 287.864,293.692 280.5,289C 240.833,288.333 201.167,288.333 161.5,289C 150.855,290.979 144.022,297.146 141,307.5C 140.667,340.833 140.333,374.167 140,407.5C 136.616,419.634 129.116,423.134 117.5,418C 114.533,415.9 112.7,413.066 112,409.5C 111.667,376.167 111.333,342.833 111,309.5C 108.763,300.261 103.263,293.761 94.5,290C 78.8825,288.58 63.2159,288.08 47.5,288.5C 47.5,283.167 47.5,277.833 47.5,272.5 Z M 47.5,304.5 C 61.9058,304.051 76.2391,304.551 90.5,306C 92.3783,307.543 93.8783,309.376 95,311.5C 95.4997,319.493 95.6664,327.493 95.5,335.5C 83.2948,335.105 72.6282,338.938 63.5,347C 56.2573,348.628 51.0906,346.128 48,339.5C 47.5001,327.838 47.3335,316.171 47.5,304.5 Z M 30.5,332.5 C 31.9187,355.054 43.9187,365.221 66.5,363C 72.9897,360.502 78.9897,357.168 84.5,353C 88.0863,351.892 91.753,351.392 95.5,351.5C 95.5,363.833 95.5,376.167 95.5,388.5C 75.8305,388.667 56.1638,388.5 36.5,388C 22.1076,384.085 14.7743,374.585 14.5,359.5C 14.5074,347.126 19.8407,338.126 30.5,332.5 Z M 479.5,332.5 C 494.25,340.535 499.417,352.868 495,369.5C 491.978,379.854 485.145,386.021 474.5,388C 368.501,388.5 262.501,388.667 156.5,388.5C 156.5,382.833 156.5,377.167 156.5,371.5C 162.297,371.106 167.63,369.272 172.5,366C 178.284,360.885 184.618,356.552 191.5,353C 198.167,351 204.833,351 211.5,353C 220.331,358.917 229.331,364.583 238.5,370C 250.621,373.586 262.621,373.252 274.5,369C 281.354,365.408 287.687,361.075 293.5,356C 301.728,351.369 310.395,350.369 319.5,353C 326.354,356.592 332.687,360.925 338.5,366C 354.323,374.249 370.323,374.582 386.5,367C 392.5,362.667 398.5,358.333 404.5,354C 411.727,351.191 419.061,350.858 426.5,353C 432.01,357.168 438.01,360.502 444.5,363C 460.57,365.551 471.737,359.385 478,344.5C 479.015,340.56 479.515,336.56 479.5,332.5 Z M 47.5,404.5 C 63.5,404.5 79.5,404.5 95.5,404.5C 97.9075,429.71 111.574,439.877 136.5,435C 149.531,429.128 156.197,418.961 156.5,404.5C 258.833,404.5 361.167,404.5 463.5,404.5C 462.955,442.425 445.289,468.925 410.5,484C 395.771,490.182 380.438,493.849 364.5,495C 291.833,495.667 219.167,495.667 146.5,495C 114.626,492.973 87.4593,480.806 65,458.5C 52.4702,442.742 46.6368,424.742 47.5,404.5 Z"/></g>
<g><path style="opacity:0.894" fill="#000000" d="M 252.5,56.5 C 257.28,55.6409 260.78,57.3075 263,61.5C 263.667,67.8333 263.667,74.1667 263,80.5C 258.465,88.0518 253.465,88.3851 248,81.5C 247.333,74.8333 247.333,68.1667 248,61.5C 249.025,59.313 250.525,57.6464 252.5,56.5 Z"/></g>
<g><path style="opacity:0.889" fill="#000000" d="M 189.5,57.5 C 198.493,56.6604 201.993,60.6604 200,69.5C 197.418,74.3331 194.585,78.9998 191.5,83.5C 184.19,87.1784 179.857,85.0117 178.5,77C 180.556,71.3821 183.056,65.8821 186,60.5C 187.145,59.3636 188.312,58.3636 189.5,57.5 Z"/></g>
<g><path style="opacity:0.885" fill="#000000" d="M 314.5,57.5 C 316.857,57.3367 319.19,57.5034 321.5,58C 326.73,63.464 330.397,69.7974 332.5,77C 331.057,84.7655 326.724,86.9322 319.5,83.5C 315.136,78.1076 311.802,72.1076 309.5,65.5C 309.71,61.8048 311.377,59.1381 314.5,57.5 Z"/></g>
</svg>
