<?xml version="1.0" standalone="no"?>
<!DOCTYPE svg PUBLIC "-//W3C//DTD SVG 20010904//EN"
 "http://www.w3.org/TR/2001/REC-SVG-20010904/DTD/svg10.dtd">
<svg version="1.0" xmlns="http://www.w3.org/2000/svg"
 width="225.000000pt" height="225.000000pt" viewBox="0 0 225.000000 225.000000"
 preserveAspectRatio="xMidYMid meet">

<g transform="translate(0.000000,225.000000) scale(0.100000,-0.100000)"
fill="#000000" stroke="none">
<path d="M964 1902 c-90 -31 -169 -112 -189 -194 -4 -16 -23 -36 -49 -53 -98
-62 -131 -181 -72 -267 42 -61 91 -91 157 -96 l60 -5 -6 -41 c-3 -22 -8 -53
-11 -68 l-5 -26 43 16 c31 12 78 16 173 17 125 0 132 -1 196 -31 37 -18 85
-49 108 -69 l41 -37 0 97 0 97 33 -9 c64 -16 125 -8 170 23 116 82 140 248 52
352 -18 21 -38 56 -44 78 -26 98 -118 165 -225 163 -34 0 -70 -4 -80 -8 -14
-5 -34 2 -68 25 -27 19 -66 38 -86 44 -55 15 -141 12 -198 -8z m243 -58 c29
-14 71 -46 94 -72 34 -38 41 -42 35 -22 -14 48 -12 54 24 62 117 27 225 -61
249 -203 5 -30 9 -46 10 -36 2 26 15 21 36 -15 46 -77 13 -213 -64 -265 -37
-25 -116 -32 -151 -13 -17 9 -17 14 -6 57 8 27 21 66 29 88 l17 40 -30 -35
c-42 -48 -72 -132 -78 -217 l-5 -72 -51 29 c-82 46 -165 64 -276 57 -52 -4
-105 -9 -118 -13 -22 -6 -22 -5 -16 37 5 33 16 52 44 79 21 19 42 43 48 54 11
21 137 74 200 83 29 4 39 9 30 14 -24 16 -85 9 -152 -16 -104 -39 -205 -29
-235 22 -10 17 -10 17 -11 -1 0 -27 63 -86 94 -86 33 0 33 -13 0 -39 -57 -45
-133 -44 -197 1 -34 24 -67 87 -67 128 0 42 33 104 69 129 27 20 30 20 33 4 2
-11 11 3 22 34 62 185 254 270 423 187z"/>
<path d="M1040 1127 c-14 -7 -32 -27 -40 -44 -8 -18 -23 -33 -32 -33 -9 0 -29
-11 -45 -24 -42 -35 -68 -46 -107 -46 -42 0 -45 -9 -11 -42 46 -46 146 -61
224 -33 39 13 44 13 84 -8 79 -41 220 -34 262 13 18 19 17 20 -8 20 -39 0 -70
15 -112 54 -21 20 -56 41 -78 47 -35 9 -42 8 -61 -10 -29 -27 -61 -27 -80 1
-23 33 -20 56 13 89 32 32 30 36 -9 16z"/>
<path d="M535 1032 c-40 -25 -93 -86 -101 -118 -9 -33 32 -92 103 -151 63 -51
116 -68 162 -52 30 11 35 9 69 -23 60 -56 131 -111 221 -171 l85 -56 -80 -36
c-114 -50 -129 -59 -129 -75 0 -28 34 -21 147 30 l114 50 85 -39 c125 -58 157
-67 171 -53 18 18 -4 35 -93 71 -42 18 -84 37 -94 45 -16 11 -14 15 27 39 60
35 199 139 253 188 43 39 44 40 83 28 34 -10 45 -9 83 9 91 41 189 155 174
203 -10 29 -73 97 -107 115 -16 8 -38 12 -48 9 -10 -3 -51 -40 -89 -81 -80
-85 -102 -136 -83 -186 11 -29 10 -30 -74 -96 -47 -37 -130 -96 -186 -131
l-100 -63 -42 23 c-65 36 -176 112 -258 178 -75 59 -76 61 -65 90 19 52 -5
102 -91 191 -42 44 -84 80 -92 80 -8 0 -29 -8 -45 -18z m96 -79 c50 -54 99
-116 99 -126 0 -4 -6 -7 -12 -7 -12 0 -158 162 -158 175 0 18 34 -2 71 -42z
m1052 41 c7 -8 -131 -168 -149 -172 -8 -2 -14 0 -14 4 0 17 135 174 150 174 4
0 9 -3 13 -6z m-1076 -106 c80 -80 98 -108 69 -108 -18 0 -166 156 -166 175 0
8 3 15 7 15 4 0 45 -37 90 -82z m1133 70 c-1 -17 -153 -178 -168 -178 -27 0
-8 29 70 107 82 83 98 94 98 71z m-1092 -200 c2 -3 -2 -9 -8 -13 -15 -10 -175
149 -165 164 5 9 33 -13 89 -66 44 -43 82 -81 84 -85z m1056 62 c-77 -76 -104
-94 -104 -69 0 19 164 168 175 158 7 -7 -18 -37 -71 -89z"/>
<path d="M904 792 c41 -80 154 -119 258 -88 51 14 115 53 105 62 -2 3 -17 0
-33 -6 -105 -41 -210 -32 -294 25 l-50 33 14 -26z"/>
</g>
</svg>
