<?xml version="1.0" encoding="UTF-8"?>
<!DOCTYPE svg PUBLIC "-//W3C//DTD SVG 1.1//EN" "http://www.w3.org/Graphics/SVG/1.1/DTD/svg11.dtd">
<svg xmlns="http://www.w3.org/2000/svg" version="1.1" width="512px" height="512px" style="shape-rendering:geometricPrecision; text-rendering:geometricPrecision; image-rendering:optimizeQuality; fill-rule:evenodd; clip-rule:evenodd" xmlns:xlink="http://www.w3.org/1999/xlink">
<g><path style="opacity:0.981" fill="#000000" d="M 511.5,99.5 C 511.5,103.5 511.5,107.5 511.5,111.5C 490.941,182.025 470.441,252.691 450,323.5C 447.795,326.04 445.295,328.207 442.5,330C 349.833,330.333 257.167,330.667 164.5,331C 153.218,332.716 148.718,339.216 151,350.5C 153.813,355.996 158.313,359.162 164.5,360C 257.167,360.333 349.833,360.667 442.5,361C 450.915,365.348 453.748,372.181 451,381.5C 449.5,385.667 446.667,388.5 442.5,390C 433.833,390.333 425.167,390.667 416.5,391C 442.767,399.68 454.267,417.847 451,445.5C 442.32,471.767 424.153,483.267 396.5,480C 370.233,471.32 358.733,453.153 362,425.5C 366.833,407.333 378.333,395.833 396.5,391C 332.5,390.333 268.5,390.333 204.5,391C 230.767,399.68 242.267,417.847 239,445.5C 230.32,471.767 212.153,483.267 184.5,480C 158.233,471.32 146.733,453.153 150,425.5C 154.833,407.333 166.333,395.833 184.5,391C 174.5,390.667 164.5,390.333 154.5,390C 128.541,381.599 117.041,363.765 120,336.5C 123.458,322.211 131.625,311.544 144.5,304.5C 144.833,303.667 145.167,302.833 145.5,302C 127.511,221.551 109.844,141.051 92.5,60.5C 64.498,60.6666 36.498,60.5 8.5,60C 4.31481,58.3122 1.31481,55.4788 -0.5,51.5C -0.5,47.5 -0.5,43.5 -0.5,39.5C 1.31481,35.5212 4.31481,32.6878 8.5,31C 42.5,30.3333 76.5,30.3333 110.5,31C 113.295,32.7932 115.795,34.9598 118,37.5C 122.482,54.7608 126.649,72.0941 130.5,89.5C 254.165,90.3333 377.832,90.8333 501.5,91C 505.934,92.6058 509.268,95.4391 511.5,99.5 Z M 137.5,120.5 C 250.167,120.5 362.833,120.5 475.5,120.5C 459.006,180.482 442.006,240.315 424.5,300C 341.834,300.5 259.167,300.667 176.5,300.5C 163.501,240.504 150.501,180.504 137.5,120.5 Z M 189.5,421.5 C 203.652,420.151 209.819,426.485 208,440.5C 202.135,450.246 194.301,452.08 184.5,446C 177.906,436.014 179.573,427.848 189.5,421.5 Z M 401.5,421.5 C 415.652,420.151 421.819,426.485 420,440.5C 414.135,450.246 406.301,452.08 396.5,446C 389.906,436.014 391.573,427.848 401.5,421.5 Z"/></g>
</svg>
