<?xml version="1.0" encoding="UTF-8"?>
<!DOCTYPE svg PUBLIC "-//W3C//DTD SVG 1.1//EN" "http://www.w3.org/Graphics/SVG/1.1/DTD/svg11.dtd">
<svg xmlns="http://www.w3.org/2000/svg" version="1.1" width="512px" height="512px" style="shape-rendering:geometricPrecision; text-rendering:geometricPrecision; image-rendering:optimizeQuality; fill-rule:evenodd; clip-rule:evenodd" xmlns:xlink="http://www.w3.org/1999/xlink">
<g><path style="opacity:0.983" fill="#0f76f0" d="M 218.5,5.5 C 243.169,5.33336 267.836,5.50003 292.5,6C 309.88,11.047 319.714,22.547 322,40.5C 322.5,48.4931 322.666,56.4931 322.5,64.5C 354.835,64.3334 387.168,64.5 419.5,65C 432.437,68.2704 440.27,76.437 443,89.5C 443.92,102.224 443.586,114.89 442,127.5C 435.941,141.943 425.108,148.943 409.5,148.5C 409.667,252.167 409.5,355.834 409,459.5C 404.819,484.014 390.653,499.18 366.5,505C 292.5,505.667 218.5,505.667 144.5,505C 120.347,499.18 106.181,484.014 102,459.5C 101.5,355.834 101.333,252.167 101.5,148.5C 85.82,148.915 74.9866,141.915 69,127.5C 67.4135,114.89 67.0802,102.224 68,89.5C 70.7297,76.437 78.563,68.2704 91.5,65C 123.832,64.5 156.165,64.3334 188.5,64.5C 188.196,54.1221 188.696,43.7888 190,33.5C 194.786,19.2124 204.286,9.87911 218.5,5.5 Z M 223.5,21.5 C 244.836,21.3334 266.169,21.5 287.5,22C 296.557,24.0567 302.391,29.5567 305,38.5C 305.5,47.1603 305.666,55.8269 305.5,64.5C 272.167,64.5 238.833,64.5 205.5,64.5C 205.08,54.7529 205.58,45.0862 207,35.5C 210.566,28.4245 216.066,23.7579 223.5,21.5 Z"/></g>
<g><path style="opacity:1" fill="#f8f8f8" d="M 93.5,80.5 C 201.167,80.3333 308.834,80.5 416.5,81C 421.974,82.4735 425.474,85.9735 427,91.5C 427.667,101.5 427.667,111.5 427,121.5C 424.833,126.333 421.333,129.833 416.5,132C 309.167,132.667 201.833,132.667 94.5,132C 84.202,126.554 80.5353,118.054 83.5,106.5C 80.819,95.2388 84.1523,86.5722 93.5,80.5 Z"/></g>
<g><path style="opacity:1" fill="#c8ddf6" d="M 392.5,458.5 C 389.668,474.503 380.335,484.67 364.5,489C 291.5,489.667 218.5,489.667 145.5,489C 129.77,484.114 120.77,473.614 118.5,457.5C 118.5,354.5 118.5,251.5 118.5,148.5C 209.833,148.5 301.167,148.5 392.5,148.5C 392.5,251.833 392.5,355.167 392.5,458.5 Z"/></g>
<g><path style="opacity:1" fill="#95c0f4" d="M 392.5,458.5 C 392.5,355.167 392.5,251.833 392.5,148.5C 301.167,148.5 209.833,148.5 118.5,148.5C 118.5,251.5 118.5,354.5 118.5,457.5C 117.501,354.335 117.167,251.001 117.5,147.5C 209.5,147.5 301.5,147.5 393.5,147.5C 393.833,251.335 393.499,355.001 392.5,458.5 Z"/></g>
<g><path style="opacity:1" fill="#0c76f0" d="M 189.5,192.5 C 193.909,191.618 197.409,192.952 200,196.5C 200.667,278.167 200.667,359.833 200,441.5C 195.333,446.833 190.667,446.833 186,441.5C 185.333,359.833 185.333,278.167 186,196.5C 187.376,195.295 188.542,193.962 189.5,192.5 Z"/></g>
<g><path style="opacity:1" fill="#1478f0" d="M 251.5,192.5 C 256.635,191.426 260.468,193.093 263,197.5C 263.667,278.5 263.667,359.5 263,440.5C 259.987,445.535 255.82,446.702 250.5,444C 249.299,443.097 248.465,441.931 248,440.5C 247.333,359.5 247.333,278.5 248,197.5C 248.997,195.677 250.164,194.01 251.5,192.5 Z"/></g>
<g><path style="opacity:1" fill="#0c76f0" d="M 314.5,192.5 C 318.909,191.618 322.409,192.952 325,196.5C 325.667,278.167 325.667,359.833 325,441.5C 320.333,446.833 315.667,446.833 311,441.5C 310.333,359.833 310.333,278.167 311,196.5C 312.376,195.295 313.542,193.962 314.5,192.5 Z"/></g>
</svg>
